<svg width="1212" height="291" viewBox="0 0 1212 291" fill="none" xmlns="http://www.w3.org/2000/svg">
<g clip-path="url(#clip0_1_2)">
<path d="M208.591 102L248.115 129V207.543C248.115 223.168 244.422 236.911 237.036 248.771C229.72 260.632 219.422 269.901 206.141 276.577C192.859 283.182 170.761 286.484 153.006 286.484C135.179 286.484 113.149 283.182 99.8679 276.577C86.5867 269.901 76.2884 260.632 68.973 248.771C61.6577 236.911 58 223.168 58 207.543L58 129L97.5242 102V204.24C97.5242 213.331 99.5128 221.428 103.49 228.53C107.538 235.632 113.22 241.207 120.536 245.256C127.851 249.233 142.992 251.222 153.006 251.222C163.02 251.222 178.264 249.233 185.58 245.256C192.966 241.207 198.648 235.632 202.625 228.53C206.602 221.428 208.591 213.331 208.591 204.24V102Z" fill="url(#paint0_linear_1_2)"/>
<path d="M98 23H59V68H98V23Z" fill="url(#paint1_linear_1_2)"/>
<path d="M174.537 33.9361L22.9956 137.109V90L151.902 0.193497L174.537 33.9361Z" fill="url(#paint2_linear_1_2)"/>
<path d="M281.785 90L151.705 0L148.04 46.6977L281.785 136.978V90Z" fill="url(#paint3_linear_1_2)"/>
<path d="M98 23H59V68H98V23Z" fill="url(#paint4_linear_1_2)"/>
<path d="M174.537 33.9361L22.9956 137.109V90L151.902 0.193497L174.537 33.9361Z" fill="url(#paint5_linear_1_2)"/>
<path d="M281.785 90L151.705 0L148.04 46.6977L281.785 136.978V90Z" fill="url(#paint6_linear_1_2)"/>
<path d="M305.8 192.4C309.4 186.533 314.067 181.933 319.8 178.6C325.667 175.267 332.333 173.6 339.8 173.6V203H332.4C323.6 203 316.933 205.067 312.4 209.2C308 213.333 305.8 220.533 305.8 230.8V286H277.8V175.2H305.8V192.4ZM386.659 191.4C390.259 186.067 395.193 181.733 401.459 178.4C407.859 175.067 415.126 173.4 423.259 173.4C432.726 173.4 441.259 175.733 448.859 180.4C456.593 185.067 462.659 191.733 467.059 200.4C471.593 208.933 473.859 218.867 473.859 230.2C473.859 241.533 471.593 251.6 467.059 260.4C462.659 269.067 456.593 275.8 448.859 280.6C441.259 285.4 432.726 287.8 423.259 287.8C414.993 287.8 407.726 286.2 401.459 283C395.326 279.667 390.393 275.4 386.659 270.2V286H358.659V138H386.659V191.4ZM445.259 230.2C445.259 223.533 443.859 217.8 441.059 213C438.393 208.067 434.793 204.333 430.259 201.8C425.859 199.267 421.059 198 415.859 198C410.793 198 405.993 199.333 401.459 202C397.059 204.533 393.459 208.267 390.659 213.2C387.993 218.133 386.659 223.933 386.659 230.6C386.659 237.267 387.993 243.067 390.659 248C393.459 252.933 397.059 256.733 401.459 259.4C405.993 261.933 410.793 263.2 415.859 263.2C421.059 263.2 425.859 261.867 430.259 259.2C434.793 256.533 438.393 252.733 441.059 247.8C443.859 242.867 445.259 237 445.259 230.2ZM487.006 230.2C487.006 219 489.206 209.067 493.606 200.4C498.14 191.733 504.206 185.067 511.806 180.4C519.54 175.733 528.14 173.4 537.606 173.4C545.873 173.4 553.073 175.067 559.206 178.4C565.473 181.733 570.473 185.933 574.206 191V175.2H602.406V286H574.206V269.8C570.606 275 565.606 279.333 559.206 282.8C552.94 286.133 545.673 287.8 537.406 287.8C528.073 287.8 519.54 285.4 511.806 280.6C504.206 275.8 498.14 269.067 493.606 260.4C489.206 251.6 487.006 241.533 487.006 230.2ZM574.206 230.6C574.206 223.8 572.873 218 570.206 213.2C567.54 208.267 563.94 204.533 559.406 202C554.873 199.333 550.006 198 544.806 198C539.606 198 534.806 199.267 530.406 201.8C526.006 204.333 522.406 208.067 519.606 213C516.94 217.8 515.606 223.533 515.606 230.2C515.606 236.867 516.94 242.733 519.606 247.8C522.406 252.733 526.006 256.533 530.406 259.2C534.94 261.867 539.74 263.2 544.806 263.2C550.006 263.2 554.873 261.933 559.406 259.4C563.94 256.733 567.54 253 570.206 248.2C572.873 243.267 574.206 237.4 574.206 230.6ZM691.153 173.6C704.353 173.6 715.02 177.8 723.153 186.2C731.286 194.467 735.353 206.067 735.353 221V286H707.353V224.8C707.353 216 705.153 209.267 700.753 204.6C696.353 199.8 690.353 197.4 682.753 197.4C675.02 197.4 668.886 199.8 664.353 204.6C659.953 209.267 657.753 216 657.753 224.8V286H629.753V175.2H657.753V189C661.486 184.2 666.22 180.467 671.953 177.8C677.82 175 684.22 173.6 691.153 173.6ZM754.78 230.6C754.78 219.133 757.113 209.133 761.78 200.6C766.446 191.933 772.913 185.267 781.18 180.6C789.446 175.8 798.913 173.4 809.58 173.4C823.313 173.4 834.646 176.867 843.58 183.8C852.646 190.6 858.713 200.2 861.78 212.6H831.58C829.98 207.8 827.246 204.067 823.38 201.4C819.646 198.6 814.98 197.2 809.38 197.2C801.38 197.2 795.046 200.133 790.38 206C785.713 211.733 783.38 219.933 783.38 230.6C783.38 241.133 785.713 249.333 790.38 255.2C795.046 260.933 801.38 263.8 809.38 263.8C820.713 263.8 828.113 258.733 831.58 248.6H861.78C858.713 260.6 852.646 270.133 843.58 277.2C834.513 284.267 823.18 287.8 809.58 287.8C798.913 287.8 789.446 285.467 781.18 280.8C772.913 276 766.446 269.333 761.78 260.8C757.113 252.133 754.78 242.067 754.78 230.6ZM875.092 230.2C875.092 219 877.292 209.067 881.692 200.4C886.226 191.733 892.292 185.067 899.892 180.4C907.626 175.733 916.226 173.4 925.692 173.4C933.959 173.4 941.159 175.067 947.292 178.4C953.559 181.733 958.559 185.933 962.292 191V175.2H990.492V286H962.292V269.8C958.692 275 953.692 279.333 947.292 282.8C941.026 286.133 933.759 287.8 925.492 287.8C916.159 287.8 907.626 285.4 899.892 280.6C892.292 275.8 886.226 269.067 881.692 260.4C877.292 251.6 875.092 241.533 875.092 230.2ZM962.292 230.6C962.292 223.8 960.959 218 958.292 213.2C955.626 208.267 952.026 204.533 947.492 202C942.959 199.333 938.092 198 932.892 198C927.692 198 922.892 199.267 918.492 201.8C914.092 204.333 910.492 208.067 907.692 213C905.026 217.8 903.692 223.533 903.692 230.2C903.692 236.867 905.026 242.733 907.692 247.8C910.492 252.733 914.092 256.533 918.492 259.2C923.026 261.867 927.826 263.2 932.892 263.2C938.092 263.2 942.959 261.933 947.492 259.4C952.026 256.733 955.626 253 958.292 248.2C960.959 243.267 962.292 237.4 962.292 230.6ZM1045.84 192.4C1049.44 186.533 1054.11 181.933 1059.84 178.6C1065.71 175.267 1072.37 173.6 1079.84 173.6V203H1072.44C1063.64 203 1056.97 205.067 1052.44 209.2C1048.04 213.333 1045.84 220.533 1045.84 230.8V286H1017.84V175.2H1045.84V192.4ZM1201.7 228.2C1201.7 232.2 1201.43 235.8 1200.9 239H1119.9C1120.57 247 1123.37 253.267 1128.3 257.8C1133.23 262.333 1139.3 264.6 1146.5 264.6C1156.9 264.6 1164.3 260.133 1168.7 251.2H1198.9C1195.7 261.867 1189.57 270.667 1180.5 277.6C1171.43 284.4 1160.3 287.8 1147.1 287.8C1136.43 287.8 1126.83 285.467 1118.3 280.8C1109.9 276 1103.3 269.267 1098.5 260.6C1093.83 251.933 1091.5 241.933 1091.5 230.6C1091.5 219.133 1093.83 209.067 1098.5 200.4C1103.17 191.733 1109.7 185.067 1118.1 180.4C1126.5 175.733 1136.17 173.4 1147.1 173.4C1157.63 173.4 1167.03 175.667 1175.3 180.2C1183.7 184.733 1190.17 191.2 1194.7 199.6C1199.37 207.867 1201.7 217.4 1201.7 228.2ZM1172.7 220.2C1172.57 213 1169.97 207.267 1164.9 203C1159.83 198.6 1153.63 196.4 1146.3 196.4C1139.37 196.4 1133.5 198.533 1128.7 202.8C1124.03 206.933 1121.17 212.733 1120.1 220.2H1172.7Z" fill="url(#paint7_linear_1_2)"/>
</g>
<defs>
<linearGradient id="paint0_linear_1_2" x1="153.058" y1="102" x2="153.058" y2="286.484" gradientUnits="userSpaceOnUse">
<stop stop-color="#4364C7"/>
<stop offset="1" stop-color="#203161"/>
</linearGradient>
<linearGradient id="paint1_linear_1_2" x1="78.5" y1="23" x2="78.5" y2="68" gradientUnits="userSpaceOnUse">
<stop stop-color="#5176E6"/>
<stop offset="1" stop-color="#192C63"/>
</linearGradient>
<linearGradient id="paint2_linear_1_2" x1="98.7663" y1="0.193497" x2="98.7663" y2="137.109" gradientUnits="userSpaceOnUse">
<stop stop-color="#5176E6"/>
<stop offset="1" stop-color="#192C63"/>
</linearGradient>
<linearGradient id="paint3_linear_1_2" x1="214.913" y1="0" x2="214.913" y2="136.978" gradientUnits="userSpaceOnUse">
<stop stop-color="#5176E6"/>
<stop offset="1" stop-color="#192C63"/>
</linearGradient>
<linearGradient id="paint4_linear_1_2" x1="78.5" y1="23" x2="78.5" y2="68" gradientUnits="userSpaceOnUse">
<stop stop-color="#5176E6"/>
<stop offset="1" stop-color="#192C63"/>
</linearGradient>
<linearGradient id="paint5_linear_1_2" x1="98.7663" y1="0.193497" x2="98.7663" y2="137.109" gradientUnits="userSpaceOnUse">
<stop stop-color="#5176E6"/>
<stop offset="1" stop-color="#192C63"/>
</linearGradient>
<linearGradient id="paint6_linear_1_2" x1="214.913" y1="0" x2="214.913" y2="136.978" gradientUnits="userSpaceOnUse">
<stop stop-color="#5176E6"/>
<stop offset="1" stop-color="#192C63"/>
</linearGradient>
<linearGradient id="paint7_linear_1_2" x1="738" y1="178" x2="738" y2="291" gradientUnits="userSpaceOnUse">
<stop stop-color="#4364C7"/>
<stop offset="1" stop-color="#203161"/>
</linearGradient>
<clipPath id="clip0_1_2">
<rect width="1212" height="291" fill="white"/>
</clipPath>
</defs>
</svg>
