<svg width="110" height="103" viewBox="0 0 110 103" fill="none" xmlns="http://www.w3.org/2000/svg">
<path d="M74.2789 36L88 45.8057V74.3304C88 80.005 86.7179 84.996 84.1536 89.3036C81.6141 93.6111 78.0389 96.9772 73.4282 99.4018C68.8175 101.801 61.146 103 54.982 103C48.7933 103 41.1455 101.801 36.5348 99.4018C31.9241 96.9772 28.349 93.6111 25.8094 89.3036C23.2698 84.996 22 80.005 22 74.3304L22 45.8057L35.7211 36V73.131C35.7211 76.4326 36.4115 79.373 37.7922 81.9524C39.1976 84.5318 41.1701 86.5566 43.7097 88.0268C46.2493 89.4712 51.5055 90.1935 54.982 90.1935C58.4585 90.1935 63.7507 89.4712 66.2903 88.0268C68.8545 86.5566 70.827 84.5318 72.2078 81.9524C73.5885 79.373 74.2789 76.4326 74.2789 73.131V36Z" fill="url(#paint0_linear_92_146)"/>
<g clip-path="url(#clip0_92_146)">
<path d="M35.3443 8.33325H21.2787V24.6376H35.3443V8.33325Z" fill="url(#paint1_linear_92_146)"/>
<path d="M62.9478 12.2956L8.29358 49.6771V32.6087L54.7844 0.0700684L62.9478 12.2956Z" fill="url(#paint2_linear_92_146)"/>
<path d="M101.627 32.6087L54.7133 0L53.3915 16.9195L101.627 49.6297V32.6087Z" fill="url(#paint3_linear_92_146)"/>
</g>
<g clip-path="url(#clip1_92_146)">
<path d="M35.3443 8.33325H21.2787V24.6376H35.3443V8.33325Z" fill="url(#paint4_linear_92_146)"/>
<path d="M62.9478 12.2956L8.29358 49.6771V32.6087L54.7844 0.0700684L62.9478 12.2956Z" fill="url(#paint5_linear_92_146)"/>
<path d="M101.627 32.6087L54.7133 0L53.3915 16.9195L101.627 49.6297V32.6087Z" fill="url(#paint6_linear_92_146)"/>
</g>
<defs>
<linearGradient id="paint0_linear_92_146" x1="55" y1="36" x2="55" y2="103" gradientUnits="userSpaceOnUse">
<stop offset="1" stop-color="white"/>
</linearGradient>
<linearGradient id="paint1_linear_92_146" x1="28.3115" y1="8.33325" x2="28.3115" y2="24.6376" gradientUnits="userSpaceOnUse">
<stop offset="1" stop-color="white"/>
</linearGradient>
<linearGradient id="paint2_linear_92_146" x1="35.6207" y1="0.0700684" x2="35.6207" y2="49.6771" gradientUnits="userSpaceOnUse">
<stop offset="1" stop-color="white"/>
</linearGradient>
<linearGradient id="paint3_linear_92_146" x1="77.5094" y1="0" x2="77.5094" y2="49.6297" gradientUnits="userSpaceOnUse">
<stop offset="1" stop-color="white"/>
</linearGradient>
<linearGradient id="paint4_linear_92_146" x1="28.3115" y1="8.33325" x2="28.3115" y2="24.6376" gradientUnits="userSpaceOnUse">
<stop offset="1" stop-color="white"/>
</linearGradient>
<linearGradient id="paint5_linear_92_146" x1="35.6207" y1="0.0700684" x2="35.6207" y2="49.6771" gradientUnits="userSpaceOnUse">
<stop offset="1" stop-color="white"/>
</linearGradient>
<linearGradient id="paint6_linear_92_146" x1="77.5094" y1="0" x2="77.5094" y2="49.6297" gradientUnits="userSpaceOnUse">
<stop offset="1" stop-color="white"/>
</linearGradient>
<clipPath id="clip0_92_146">
<rect width="110" height="50" fill="white"/>
</clipPath>
<clipPath id="clip1_92_146">
<rect width="110" height="50" fill="white"/>
</clipPath>
</defs>
</svg>
